<mxfile host="65bd71144e">
    <diagram id="we-WuGTjFfnCua6wukIL" name="Page-1">
        <mxGraphModel dx="2419" dy="1101" grid="0" gridSize="10" guides="1" tooltips="1" connect="1" arrows="1" fold="1" page="1" pageScale="1" pageWidth="827" pageHeight="1169" math="0" shadow="0">
            <root>
                <mxCell id="0"/>
                <mxCell id="1" parent="0"/>
                <mxCell id="2" value="" style="rounded=0;whiteSpace=wrap;html=1;fontSize=12;fillColor=none;sketch=1;curveFitting=1;jiggle=2;strokeWidth=3;" parent="1" vertex="1">
                    <mxGeometry x="467" y="823" width="217" height="292" as="geometry"/>
                </mxCell>
                <mxCell id="3" value="Vector DB&lt;br&gt;Milvus" style="rounded=0;whiteSpace=wrap;html=1;fontSize=16;fillStyle=auto;fillColor=#FFCCCC;sketch=1;curveFitting=1;jiggle=2;" parent="1" vertex="1">
                    <mxGeometry x="-486" y="1018" width="192" height="91" as="geometry"/>
                </mxCell>
                <mxCell id="7" value="EmbeddingIndexer" style="rounded=0;whiteSpace=wrap;html=1;fontSize=16;fillStyle=auto;fillColor=#FF3333;sketch=1;curveFitting=1;jiggle=2;" parent="1" vertex="1">
                    <mxGeometry x="-267" y="534.5" width="192" height="91" as="geometry"/>
                </mxCell>
                <mxCell id="8" value="" style="edgeStyle=none;html=1;entryX=0.5;entryY=0;entryDx=0;entryDy=0;exitX=0;exitY=0.5;exitDx=0;exitDy=0;endArrow=none;endFill=0;strokeWidth=3;sketch=1;curveFitting=1;jiggle=2;" parent="1" source="7" target="3" edge="1">
                    <mxGeometry relative="1" as="geometry">
                        <mxPoint x="-354.6064814814815" y="591.5" as="sourcePoint"/>
                        <mxPoint x="-295" y="654" as="targetPoint"/>
                    </mxGeometry>
                </mxCell>
                <mxCell id="9" value="EmbeddingSearcher" style="rounded=0;whiteSpace=wrap;html=1;fontSize=16;fillStyle=auto;fillColor=#FF3333;sketch=1;curveFitting=1;jiggle=2;" parent="1" vertex="1">
                    <mxGeometry x="-262" y="710.5" width="192" height="91" as="geometry"/>
                </mxCell>
                <mxCell id="10" value="" style="edgeStyle=none;html=1;entryX=0.5;entryY=0;entryDx=0;entryDy=0;exitX=0;exitY=0.5;exitDx=0;exitDy=0;endArrow=none;endFill=0;strokeWidth=3;sketch=1;curveFitting=1;jiggle=2;" parent="1" source="9" target="3" edge="1">
                    <mxGeometry relative="1" as="geometry">
                        <mxPoint x="-232" y="767.5" as="sourcePoint"/>
                        <mxPoint x="-366" y="732" as="targetPoint"/>
                    </mxGeometry>
                </mxCell>
                <mxCell id="11" value="AI UI" style="rounded=0;whiteSpace=wrap;html=1;fontSize=16;fillStyle=auto;fillColor=#336600;sketch=1;curveFitting=1;jiggle=2;" parent="1" vertex="1">
                    <mxGeometry x="326" y="108" width="192" height="91" as="geometry"/>
                </mxCell>
                <mxCell id="13" value="" style="edgeStyle=none;html=1;exitX=0.5;exitY=1;exitDx=0;exitDy=0;endArrow=none;endFill=0;strokeWidth=3;sketch=1;curveFitting=1;jiggle=2;entryX=0.5;entryY=0;entryDx=0;entryDy=0;" parent="1" source="28" target="23" edge="1">
                    <mxGeometry relative="1" as="geometry">
                        <mxPoint x="423" y="441.0000000000002" as="sourcePoint"/>
                        <mxPoint x="439" y="589" as="targetPoint"/>
                    </mxGeometry>
                </mxCell>
                <mxCell id="14" value="" style="edgeStyle=none;html=1;exitX=0.5;exitY=1;exitDx=0;exitDy=0;endArrow=none;endFill=0;strokeWidth=3;sketch=1;curveFitting=1;jiggle=2;entryX=0.5;entryY=0;entryDx=0;entryDy=0;" parent="1" source="11" target="29" edge="1">
                    <mxGeometry relative="1" as="geometry">
                        <mxPoint x="433" y="511" as="sourcePoint"/>
                        <mxPoint x="429" y="328" as="targetPoint"/>
                    </mxGeometry>
                </mxCell>
                <mxCell id="15" value="" style="edgeStyle=none;html=1;entryX=0.5;entryY=1;entryDx=0;entryDy=0;exitX=0.5;exitY=0;exitDx=0;exitDy=0;endArrow=none;endFill=0;strokeWidth=3;sketch=1;curveFitting=1;jiggle=2;" parent="1" source="9" target="7" edge="1">
                    <mxGeometry relative="1" as="geometry">
                        <mxPoint x="-91" y="763" as="sourcePoint"/>
                        <mxPoint x="-300" y="766" as="targetPoint"/>
                    </mxGeometry>
                </mxCell>
                <mxCell id="16" value="" style="edgeStyle=none;html=1;endArrow=none;endFill=0;strokeWidth=3;sketch=1;curveFitting=1;jiggle=2;entryX=0.5;entryY=0;entryDx=0;entryDy=0;" parent="1" target="20" edge="1">
                    <mxGeometry relative="1" as="geometry">
                        <mxPoint x="-269" y="580.5" as="sourcePoint"/>
                        <mxPoint x="-258" y="837.5" as="targetPoint"/>
                    </mxGeometry>
                </mxCell>
                <mxCell id="17" value="" style="edgeStyle=none;html=1;entryX=0.5;entryY=0;entryDx=0;entryDy=0;exitX=0;exitY=0.5;exitDx=0;exitDy=0;endArrow=none;endFill=0;strokeWidth=3;sketch=1;curveFitting=1;jiggle=2;" parent="1" source="9" target="20" edge="1">
                    <mxGeometry relative="1" as="geometry">
                        <mxPoint x="-232" y="767.5" as="sourcePoint"/>
                        <mxPoint x="-179" y="925" as="targetPoint"/>
                    </mxGeometry>
                </mxCell>
                <mxCell id="18" value="" style="group" parent="1" vertex="1" connectable="0">
                    <mxGeometry x="-733" y="846" width="192" height="139" as="geometry"/>
                </mxCell>
                <mxCell id="19" value="EmbeddingCalculator" style="rounded=0;whiteSpace=wrap;html=1;fontSize=16;fillStyle=auto;fillColor=#FF3333;sketch=1;curveFitting=1;jiggle=2;" parent="18" vertex="1">
                    <mxGeometry y="48" width="192" height="91" as="geometry"/>
                </mxCell>
                <mxCell id="20" value="API: openai / embeddings" style="rounded=0;whiteSpace=wrap;html=1;fontSize=12;fillStyle=auto;fillColor=#0000CC;sketch=1;curveFitting=1;jiggle=2;fontStyle=1" parent="18" vertex="1">
                    <mxGeometry width="191" height="48" as="geometry"/>
                </mxCell>
                <mxCell id="21" value="" style="group" parent="1" vertex="1" connectable="0">
                    <mxGeometry x="333" y="565" width="192" height="139" as="geometry"/>
                </mxCell>
                <mxCell id="22" value="LLM" style="rounded=0;whiteSpace=wrap;html=1;fontSize=16;fillStyle=auto;fillColor=#006600;sketch=1;curveFitting=1;jiggle=2;" parent="21" vertex="1">
                    <mxGeometry y="48" width="192" height="91" as="geometry"/>
                </mxCell>
                <mxCell id="23" value="API: openai / chat completion" style="rounded=0;whiteSpace=wrap;html=1;fontSize=12;fillStyle=auto;fillColor=#0000CC;sketch=1;curveFitting=1;jiggle=2;fontStyle=1" parent="21" vertex="1">
                    <mxGeometry width="191" height="48" as="geometry"/>
                </mxCell>
                <mxCell id="24" value="Embedding Model" style="rounded=0;whiteSpace=wrap;html=1;fontSize=16;fillStyle=auto;fillColor=#006600;sketch=1;curveFitting=1;jiggle=2;" parent="1" vertex="1">
                    <mxGeometry x="-733" y="1021" width="192" height="91" as="geometry"/>
                </mxCell>
                <mxCell id="25" value="" style="edgeStyle=none;html=1;exitX=0.5;exitY=0;exitDx=0;exitDy=0;endArrow=none;endFill=0;strokeWidth=3;sketch=1;curveFitting=1;jiggle=2;entryX=0.5;entryY=1;entryDx=0;entryDy=0;" parent="1" source="24" target="19" edge="1">
                    <mxGeometry relative="1" as="geometry">
                        <mxPoint x="-475" y="758" as="sourcePoint"/>
                        <mxPoint x="-468.5" y="978" as="targetPoint"/>
                    </mxGeometry>
                </mxCell>
                <mxCell id="27" value="" style="group" parent="1" vertex="1" connectable="0">
                    <mxGeometry x="327" y="304" width="192" height="139" as="geometry"/>
                </mxCell>
                <mxCell id="28" value="AssistentEngine" style="rounded=0;whiteSpace=wrap;html=1;fontSize=16;fillStyle=auto;fillColor=#CC0000;sketch=1;curveFitting=1;jiggle=2;" parent="27" vertex="1">
                    <mxGeometry y="48" width="192" height="91" as="geometry"/>
                </mxCell>
                <mxCell id="29" value="API: openai / chat completion" style="rounded=0;whiteSpace=wrap;html=1;fontSize=12;fillStyle=auto;fillColor=#0000CC;sketch=1;curveFitting=1;jiggle=2;fontStyle=1" parent="27" vertex="1">
                    <mxGeometry width="191" height="48" as="geometry"/>
                </mxCell>
                <mxCell id="30" value="Within my System" style="rounded=0;whiteSpace=wrap;html=1;fontSize=16;fillStyle=auto;fillColor=#FF3333;sketch=1;curveFitting=1;jiggle=2;" parent="1" vertex="1">
                    <mxGeometry x="479" y="839" width="192" height="54" as="geometry"/>
                </mxCell>
                <mxCell id="31" value="External System" style="rounded=0;whiteSpace=wrap;html=1;fontSize=16;fillStyle=auto;fillColor=#006600;sketch=1;curveFitting=1;jiggle=2;" parent="1" vertex="1">
                    <mxGeometry x="483" y="969" width="192" height="52" as="geometry"/>
                </mxCell>
                <mxCell id="32" value="DocumentChuncker" style="rounded=0;whiteSpace=wrap;html=1;fontSize=16;fillStyle=auto;fillColor=#FF3333;sketch=1;curveFitting=1;jiggle=2;" parent="1" vertex="1">
                    <mxGeometry x="-270" y="310" width="192" height="91" as="geometry"/>
                </mxCell>
                <mxCell id="33" value="" style="edgeStyle=none;html=1;entryX=0.5;entryY=1;entryDx=0;entryDy=0;endArrow=none;endFill=0;strokeWidth=3;sketch=1;curveFitting=1;jiggle=2;exitX=0.5;exitY=0;exitDx=0;exitDy=0;" parent="1" source="7" target="32" edge="1">
                    <mxGeometry relative="1" as="geometry">
                        <mxPoint x="70" y="590" as="sourcePoint"/>
                        <mxPoint x="60" y="460" as="targetPoint"/>
                    </mxGeometry>
                </mxCell>
                <mxCell id="34" value="Standard System out of the box" style="rounded=0;whiteSpace=wrap;html=1;fontSize=16;fillStyle=auto;fillColor=#FFCCCC;sketch=1;curveFitting=1;jiggle=2;" parent="1" vertex="1">
                    <mxGeometry x="481" y="903" width="192" height="54" as="geometry"/>
                </mxCell>
                <mxCell id="35" value="EmbeddingMachine" style="rounded=0;whiteSpace=wrap;html=1;sketch=1;curveFitting=1;jiggle=2;fillColor=#B3B3B3;fillStyle=hachure;strokeColor=#000000;align=left;verticalAlign=top;fontStyle=1;fontSize=20;" parent="1" vertex="1">
                    <mxGeometry x="-788" y="270" width="783" height="895" as="geometry"/>
                </mxCell>
                <mxCell id="36" value="RagMachine" style="rounded=0;whiteSpace=wrap;html=1;sketch=1;curveFitting=1;jiggle=2;fillColor=#B3B3B3;fillStyle=hachure;strokeColor=#000000;align=left;verticalAlign=top;fontStyle=1;fontSize=20;" parent="1" vertex="1">
                    <mxGeometry x="183" y="248" width="449" height="230" as="geometry"/>
                </mxCell>
                <mxCell id="37" value="" style="edgeStyle=none;html=1;entryX=1;entryY=0.5;entryDx=0;entryDy=0;exitX=0;exitY=0.5;exitDx=0;exitDy=0;endArrow=none;endFill=0;strokeWidth=3;sketch=1;curveFitting=1;jiggle=2;strokeColor=default;" parent="1" source="36" target="35" edge="1">
                    <mxGeometry relative="1" as="geometry">
                        <mxPoint x="420" y="505" as="sourcePoint"/>
                        <mxPoint x="-156" y="720.5" as="targetPoint"/>
                        <Array as="points"/>
                    </mxGeometry>
                </mxCell>
                <mxCell id="39" value="ChromaDB" style="rounded=0;whiteSpace=wrap;html=1;sketch=1;curveFitting=1;jiggle=2;fillColor=#008a00;fillStyle=hachure;strokeColor=#005700;align=left;verticalAlign=top;fontStyle=1;fontSize=20;fontColor=#ffffff;" parent="1" vertex="1">
                    <mxGeometry x="-770" y="480" width="710" height="664" as="geometry"/>
                </mxCell>
                <mxCell id="42" value="Self developed service" style="rounded=0;whiteSpace=wrap;html=1;fontSize=16;fillStyle=auto;fillColor=#B3B3B3;sketch=1;curveFitting=1;jiggle=2;" parent="1" vertex="1">
                    <mxGeometry x="483" y="1037" width="192" height="52" as="geometry"/>
                </mxCell>
            </root>
        </mxGraphModel>
    </diagram>
</mxfile>